<svg version="1.1" id="Слой_1" xmlns="http://www.w3.org/2000/svg" x="0" y="0" width="364.492" height="58.614" xml:space="preserve"><path fill="#E30000" d="M21.559 1.635H35.11l20.278 57.313H42.4l-3.781-11.781H17.512l-3.885 11.781H1.1L21.559 1.635zM20.77 37.29h14.678l-7.24-22.552L20.77 37.29zM62.017 1.635h11.082v57.313H62.017zm39.428-.526c.57.039 1.348.098 2.333.175v9.021c-.622-.078-1.666-.136-3.13-.175-1.465-.039-2.476.286-3.033.972-.558.688-.836 1.445-.836 2.275v3.577h7.271v7.815h-7.271v34.179H85.775V24.769h-6.221v-7.815h6.065v-2.722c0-4.536.765-7.66 2.295-9.371C89.521 2.322 93.396 1.05 99.54 1.05c.699 0 1.335.02 1.905.059m25.769 32.06c2.063-.259 3.538-.583 4.426-.973 1.593-.672 2.389-1.722 2.389-3.149 0-1.736-.611-2.936-1.832-3.597-1.223-.661-3.016-.991-5.38-.991-2.654 0-4.534.649-5.637 1.944-.789.959-1.314 2.255-1.576 3.888h-10.693c.234-3.706 1.275-6.752 3.124-9.137 2.941-3.733 7.992-5.599 15.152-5.599 4.66 0 8.799.921 12.418 2.761 3.619 1.84 5.428 5.314 5.428 10.42v19.442c0 1.349.026 2.981.078 4.899.078 1.452.297 2.438.661 2.955.363.519.907.947 1.633 1.284v1.632h-12.054a12.274 12.274 0 01-.699-2.41 28.285 28.285 0 01-.311-2.566 22.903 22.903 0 01-5.32 4.238c-2.398 1.373-5.111 2.061-8.135 2.061-3.859 0-7.046-1.096-9.562-3.286-2.517-2.19-3.774-5.294-3.774-9.313 0-5.21 2.023-8.981 6.071-11.314 2.22-1.271 5.484-2.178 9.793-2.722l3.8-.467zm6.776 5.17c-.71.441-1.426.798-2.148 1.069-.724.273-1.715.526-2.976.759l-2.523.467c-2.364.415-4.062.92-5.094 1.516-1.745 1.011-2.617 2.58-2.617 4.705 0 1.893.532 3.259 1.599 4.102 1.065.843 2.362 1.264 3.888 1.264 2.422 0 4.652-.7 6.693-2.1 2.04-1.4 3.099-3.953 3.178-7.66v-4.122zm66.276-36.705v10.148h-17.147v47.165h-12.055V11.782h-17.225V1.634zm25.294 13.94c.142.013.46.032.952.059v11.353a29.921 29.921 0 00-3.188-.194c-4.459 0-7.453 1.452-8.983 4.354-.855 1.634-1.283 4.149-1.283 7.544v20.258h-11.159V16.565h10.576v7.388c1.711-2.825 3.201-4.756 4.472-5.793 2.074-1.737 4.769-2.606 8.088-2.606.207 0 .381.007.525.02m24.233 17.595c2.062-.259 3.538-.583 4.425-.973 1.593-.672 2.39-1.722 2.39-3.149 0-1.736-.611-2.936-1.833-3.597s-3.016-.991-5.38-.991c-2.653 0-4.533.649-5.637 1.944-.788.959-1.313 2.255-1.576 3.888H231.49c.233-3.706 1.274-6.752 3.124-9.137 2.941-3.733 7.992-5.599 15.151-5.599 4.66 0 8.8.921 12.419 2.761 3.618 1.84 5.428 5.314 5.428 10.42v19.442c0 1.349.025 2.981.078 4.899.077 1.452.297 2.438.661 2.955.363.519.906.947 1.633 1.284v1.632H257.93a12.35 12.35 0 01-.7-2.41 28.672 28.672 0 01-.31-2.566 22.924 22.924 0 01-5.32 4.238c-2.398 1.373-5.111 2.061-8.135 2.061-3.859 0-7.046-1.096-9.562-3.286-2.517-2.19-3.774-5.294-3.774-9.313 0-5.21 2.023-8.981 6.071-11.314 2.22-1.271 5.484-2.178 9.793-2.722l3.8-.467zm6.776 5.17a12.24 12.24 0 01-2.148 1.069c-.724.273-1.715.526-2.976.759l-2.523.467c-2.365.415-4.063.92-5.094 1.516-1.745 1.011-2.617 2.58-2.617 4.705 0 1.893.532 3.259 1.598 4.102 1.066.843 2.363 1.264 3.889 1.264 2.422 0 4.652-.7 6.692-2.1 2.04-1.4 3.1-3.953 3.179-7.66v-4.122zm43.199-21.093c1.996 1.128 3.617 2.689 4.861 4.685V1.711h11.237v57.237h-10.771v-5.871c-1.581 2.514-3.382 4.342-5.404 5.482s-4.537 1.711-7.544 1.711c-4.951 0-9.118-2.003-12.501-6.008-3.383-4.005-5.074-9.143-5.074-15.417 0-7.232 1.666-12.922 4.997-17.069 3.33-4.148 7.782-6.222 13.357-6.222 2.566 0 4.846.564 6.842 1.692m2.722 30.192c1.634-2.332 2.45-5.353 2.45-9.06 0-5.183-1.309-8.89-3.928-11.12-1.607-1.347-3.473-2.022-5.598-2.022-3.241 0-5.619 1.224-7.135 3.675-1.517 2.449-2.275 5.489-2.275 9.118 0 3.915.771 7.045 2.313 9.39 1.542 2.346 3.882 3.519 7.019 3.519 3.136 0 5.521-1.167 7.154-3.5m51.065-30.014c2.956 1.324 5.398 3.415 7.324 6.269 1.736 2.52 2.862 5.44 3.376 8.763.299 1.947.42 4.751.366 8.412h-30.869c.172 4.251 1.65 7.232 4.432 8.942 1.693 1.064 3.73 1.595 6.11 1.595 2.525 0 4.576-.648 6.154-1.944.86-.7 1.621-1.672 2.281-2.916h11.313c-.297 2.514-1.668 5.067-4.108 7.66-3.796 4.121-9.111 6.182-15.945 6.182-5.641 0-10.616-1.738-14.929-5.214-4.312-3.477-6.467-9.133-6.467-16.969 0-7.342 1.946-12.972 5.838-16.89 3.893-3.917 8.944-5.876 15.156-5.876 3.689 0 7.011.663 9.968 1.986m-16.578 9.573c-1.566 1.614-2.55 3.802-2.952 6.561h19.092c-.202-2.943-1.186-5.174-2.952-6.698-1.768-1.522-3.959-2.285-6.574-2.285-2.843 0-5.049.808-6.614 2.422"/></svg>