<svg version="1.1" id="Layer_1" xmlns="http://www.w3.org/2000/svg" x="0" y="0" width="512" height="512" xml:space="preserve"><path d="M128.6 63.3c-40.4 0-73.1 32.5-73.1 72.5s32.7 72.5 73.1 72.5c40.4 0 73.1-32.5 73.1-72.5S169 63.3 128.6 63.3zm254.4 145c40.1 0 72.5-32.5 72.5-72.5S423 63.3 383 63.3s-72.5 32.5-72.5 72.5 32.4 72.5 72.5 72.5zm0 108.8c-40.1 0-72.5 32.5-72.5 72.5 0 40.1 32.5 72.5 72.5 72.5s72.5-32.5 72.5-72.5-32.5-72.5-72.5-72.5zm-254.4 0c-40.4 0-73.1 32.5-73.1 72.5 0 40.1 32.7 72.5 73.1 72.5 40.4 0 73.1-32.5 73.1-72.5s-32.7-72.5-73.1-72.5z" fill-rule="evenodd" clip-rule="evenodd"/></svg>