<?xml version="1.0" encoding="utf-8"?><svg xmlns="http://www.w3.org/2000/svg" xmlns:xlink="http://www.w3.org/1999/xlink"><symbol viewBox="0 0 512 512" id="add-user" xmlns="http://www.w3.org/2000/svg"><path d="M49.5 512c-11 0-20-9-20-20 0-100.4 81.6-182 182-182h30c20.5 0 40.7 3.4 59.9 10.1 10.4 3.6 15.9 15 12.3 25.5-3.6 10.4-15 15.9-25.5 12.3-15-5.2-30.7-7.9-46.8-7.9h-30c-78.3 0-142 63.7-142 142 .1 11-8.9 20-19.9 20zm310-377c0-74.4-60.6-135-135-135s-135 60.6-135 135 60.6 135 135 135 135-60.6 135-135zm-40 0c0 52.4-42.6 95-95 95s-95-42.6-95-95 42.6-95 95-95 95 42.6 95 95zm143 257h-60v-60c0-11-9-20-20-20s-20 9-20 20v60h-60c-11 0-20 9-20 20s9 20 20 20h60v60c0 11 9 20 20 20s20-9 20-20v-60h60c11 0 20-9 20-20s-9-20-20-20z"/></symbol><symbol class="absvg-inline--fa abfa-angle-down abfa-w-10" viewBox="0 0 320 512" id="angle-down" xmlns="http://www.w3.org/2000/svg"><path d="M143 352.3L7 216.3c-9.4-9.4-9.4-24.6 0-33.9l22.6-22.6c9.4-9.4 24.6-9.4 33.9 0l96.4 96.4 96.4-96.4c9.4-9.4 24.6-9.4 33.9 0l22.6 22.6c9.4 9.4 9.4 24.6 0 33.9l-136 136c-9.2 9.4-24.4 9.4-33.8 0z"/></symbol><symbol class="acsvg-inline--fa acfa-angle-up acfa-w-10" viewBox="0 0 320 512" id="angle-up" xmlns="http://www.w3.org/2000/svg"><path d="M177 159.7l136 136c9.4 9.4 9.4 24.6 0 33.9l-22.6 22.6c-9.4 9.4-24.6 9.4-33.9 0L160 255.9l-96.4 96.4c-9.4 9.4-24.6 9.4-33.9 0L7 329.7c-9.4-9.4-9.4-24.6 0-33.9l136-136c9.4-9.5 24.6-9.5 34-.1z"/></symbol><symbol viewBox="0 0 512 512" id="api" xmlns="http://www.w3.org/2000/svg"><path d="M464 432c-14.6 0-27.2 9.9-30.9 24H408c-4.4 0-8-3.6-8-8v-56h17.1c4.4 17.1 21.9 27.4 39 23 17.1-4.4 27.4-21.9 23-39s-21.9-27.4-39-23c-11.3 2.9-20.1 11.7-23 23H400V256h24c39.8 0 72-32.2 72-72s-32.2-72-72-72h-16.5c-4.3-39.4-39.8-67.9-79.2-63.6-12.4 1.4-24.2 5.9-34.2 13.2-41-52-116.4-60.8-168.3-19.8-22.3 17.6-37.7 42.6-43.3 70.5-39.6 3-69.3 37.6-66.3 77.2C19.1 227 50.4 256 88 256h24v104H94.9c-4.4-17.1-21.9-27.4-39-23s-27.4 21.9-23 39c4.4 17.1 21.9 27.4 39 23 11.3-2.9 20.1-11.7 23-23H112v72c0 4.4-3.6 8-8 8H78.9c-4.4-17.1-21.9-27.4-39-23s-27.4 21.9-23 39 21.9 27.4 39 23c11.3-2.9 20.1-11.7 23-23H104c13.2 0 24-10.8 24-24v-72h64c13.2 0 24-10.8 24-24v-96h32v177.1c-17.1 4.4-27.4 21.9-23 39 4.4 17.1 21.9 27.4 39 23s27.4-21.9 23-39c-2.9-11.3-11.7-20.1-23-23V256h32v112c0 13.2 10.8 24 24 24h64v56c0 13.2 10.8 24 24 24h25.1c4.4 17.1 21.9 27.3 39 22.9 17.1-4.4 27.3-21.9 22.9-39a32 32 0 00-31-23.9zm-16-64c8.8 0 16 7.2 16 16s-7.2 16-16 16-16-7.2-16-16 7.2-16 16-16zM64 384c-8.8 0-16-7.2-16-16s7.2-16 16-16 16 7.2 16 16-7.2 16-16 16zm-16 96c-8.8 0-16-7.2-16-16s7.2-16 16-16 16 7.2 16 16-7.2 16-16 16zm152-128c0 4.4-3.6 8-8 8h-64V256h72v96zm72 112c0 8.8-7.2 16-16 16s-16-7.2-16-16 7.2-16 16-16 16 7.2 16 16zm112-88h-64c-4.4 0-8-3.6-8-8V256h72v120zM88 240c-30.9 0-56-25.1-56-56s25.1-56 56-56h1c20 .4 38.3 11.4 48 28.9l14.1-7.8c-10.9-19.5-30.3-32.9-52.4-36.3 12.8-56 68.6-91 124.6-78.2 44.6 10.2 77.3 48.3 80.6 94l15.9-1.1c-1.3-18.6-7-36.6-16.6-52.6 25.1-18.1 60.1-12.5 78.2 12.5 12.7 17.5 14.1 40.8 3.7 59.8L399 155c4.6-8.3 7.5-17.4 8.6-26.9H424c30.9 0 56 25.1 56 56s-25.1 56-56 56H88zm376 240c-8.8 0-16-7.2-16-16s7.2-16 16-16 16 7.2 16 16-7.2 16-16 16z"/><path d="M64 184c0-13.3 10.7-24 24-24v-16c-22.1 0-40 17.9-40 40s17.9 40 40 40h48v-16H88c-13.3 0-24-10.7-24-24zm143.9-32.9c-.4-4.1-3.8-7.1-7.9-7.1h-32c-4.1 0-7.5 3.1-7.9 7.1l-8 72 15.8 1.8 2.8-24.9h26.6l2.8 24.9 15.8-1.8-8-72zM172.5 184l2.7-24h17.6l2.7 24h-23zM288 144h-48c-4.4 0-8 3.6-8 8v72h16v-32h40c4.4 0 8-3.6 8-8v-32c0-4.4-3.6-8-8-8zm-8 32h-32v-16h32v16zm64-16v48h16v16h-48v-16h16v-48h-16v-16h48v16h-16z"/></symbol><symbol viewBox="0 0 268.8 268.8" id="arrow-right" xmlns="http://www.w3.org/2000/svg"><path d="M265.2 125.6l-80-80c-4.9-4.9-12.8-4.9-17.7 0-4.9 4.9-4.9 12.8 0 17.7l58.7 58.7H12.5C5.6 122 0 127.6 0 134.5S5.6 147 12.5 147h213.7l-58.7 58.7c-4.9 4.9-4.9 12.8 0 17.7 2.4 2.4 5.6 3.7 8.8 3.7s6.4-1.2 8.8-3.7l80-80c5-5 5-12.9.1-17.8z"/></symbol><symbol viewBox="0 0 512 512" id="bitcoin" xmlns="http://www.w3.org/2000/svg"><path d="M437 75C337-25 175.1-25 75 75-25 175-25 336.9 75 437c100 100 261.9 100 362 0 100-100 100-261.9 0-362zM256 469.9c-117.9 0-213.9-96-213.9-213.9S138.1 42.1 256 42.1s213.9 96 213.9 213.9-96 213.9-213.9 213.9z"/><path d="M332 245c9.6-16.2 9.1-29.4 9.1-41.1 0-28-17.8-52-42.7-61.1v-25.6c0-11.6-9.4-21-21-21s-21 9.4-21 21v21.7h-22v-21.7c0-11.6-9.4-21-21-21s-21 9.4-21 21v21.7c-12.5 0-21.4 9.9-21.4 21v192.2c0 11.1 8.8 21 21.4 21v21.7c0 11.6 9.4 21 21 21s21-9.4 21-21v-21.7h22v21.7c0 11.6 9.4 21 21 21s21-9.4 21-21v-21.7c35.4-.5 64.1-29.5 64.1-65v-8c-.1-23.2-12.2-43.5-30.5-55.1zm-33-33c0 12.7-10.3 23-23 23h-63v-54.1h63c12.7 0 23 10.3 23 23v8.1zm21.4 96.1c0 12.7-10.3 23-23 23H213V277h84.4c12.7 0 23 10.3 23 23v8.1z"/></symbol><symbol viewBox="0 0 313.5 313.5" id="blank-house" xmlns="http://www.w3.org/2000/svg"><path d="M7.3 177.4c2.7 1.8 5.8 2.7 9 2.7s6.3-.9 9-2.7c.9-.6 1.8-1.3 2.6-2.1l10.6-10.6v74.5c0 32.8 29 60.6 63.4 60.6h114.9c33.7 0 61.1-27.2 61.1-60.6v-71.7l7.9 7.9c3.2 3.2 7.4 4.8 11.5 4.8s8.4-1.6 11.5-4.8c6.4-6.4 6.4-16.7 0-23.1l-129-129c-11.9-11.9-30.8-12.5-43.6-2.1-.9.7-1.8 1.3-2.6 2.1L4.8 152.2c-6.4 6.4-6.4 16.7 0 23.1.8.8 1.6 1.5 2.5 2.1zm237.9-42.6v104.4c0 15.4-12.8 28-28.4 28H101.9c-16.4 0-30.8-13.1-30.8-28V132l85.6-85.6 88.5 88.4z"/></symbol><symbol viewBox="0 0 512 512" id="calculator" xmlns="http://www.w3.org/2000/svg"><circle cx="138" cy="324" r="20"/><circle cx="138" cy="424" r="20"/><path d="M100 394h76c11 0 20-9 20-20s-9-20-20-20h-76c-11 0-20 9-20 20s9 20 20 20zm0-236h18v18c0 11 9 20 20 20s20-9 20-20v-18h18c11 0 20-9 20-20s-9-20-20-20h-18v-18c0-11-9-20-20-20s-20 9-20 20v18h-18c-11 0-20 9-20 20s9 20 20 20z"/><path d="M492 352c11 0 20-9 20-20V80c0-44.1-35.9-80-80-80H80C35.9 0 0 35.9 0 80v352c0 44.1 35.9 80 80 80h352c44.1 0 80-35.9 80-80 0-11-9-20-20-20s-20 9-20 20c0 22.1-17.9 40-40 40H276V277h196v55c0 11 9 20 20 20zM236 472H80c-22.1 0-40-17.9-40-40V277h196v195zm0-235H40V80c0-22.1 17.9-40 40-40h156v197zm40 0V40h156c22.1 0 40 17.9 40 40v157H276z"/><path d="M417.6 330.5c-7.8-7.8-20.5-7.8-28.3 0L374 345.9l-15.4-15.4c-7.8-7.8-20.5-7.8-28.3 0-7.8 7.8-7.8 20.5 0 28.3l15.4 15.4-15.4 15.4c-7.8 7.8-7.8 20.5 0 28.3 3.9 3.9 9 5.9 14.1 5.9s10.2-2 14.1-5.9l15.4-15.4 15.4 15.4c3.9 3.9 9 5.9 14.1 5.9s10.2-2 14.1-5.9c7.8-7.8 7.8-20.5 0-28.3l-15.4-15.4 15.4-15.4c7.9-7.8 7.9-20.5.1-28.3zM412 118h-76c-11 0-20 9-20 20s9 20 20 20h76c11 0 20-9 20-20s-9-20-20-20z"/></symbol><symbol viewBox="0 0 512 512" id="dollar" xmlns="http://www.w3.org/2000/svg"><path d="M233.1 179.7c20.3-20.3 55.3-5.8 55.3 22.9 0 11.6 9.4 21 21 21s21-9.4 21-21c0-33.7-22.6-62.3-53.4-71.4v-14.1c0-11.6-9.4-21-21-21s-21 9.4-21 21v14c-35.8 10.5-58.9 46.4-50.7 84.1 5 23.2 21.1 42.5 43 51.6l41.4 17.2c19.2 7.9 24.9 32.5 11 47.4-19.9 21.3-56.1 7.4-56.1-22 0-11.6-9.4-21-21-21s-21 9.4-21 21c0 32.8 21.7 62.1 53.4 71.4v14.1c0 11.6 9.4 21 21 21s21-9.4 21-21v-14.1c11.7-3.4 22.5-9.7 31.3-18.4 36.5-36.1 23.5-97.6-23.6-117.1L243.3 228c-19.4-8-25.2-33.3-10.2-48.3z"/><path d="M437 75C337-25 175.1-25 75 75-25 175-25 336.9 75 437c100 100 261.9 100 362 0 100-100 100-261.9 0-362zM256 469.9c-117.9 0-213.9-96-213.9-213.9S138.1 42.1 256 42.1s213.9 96 213.9 213.9-96 213.9-213.9 213.9z"/></symbol><symbol viewBox="0 0 512 512" id="email" xmlns="http://www.w3.org/2000/svg"><path d="M492 291.5c11 0 20-9 20-20v-131c0-44.1-35.9-80-80-80H80c-44.1 0-80 35.9-80 80v231c0 44.1 35.9 80 80 80h352c44.1 0 80-35.9 80-80 0-11-9-20-20-20s-20 9-20 20c0 22.1-17.9 40-40 40H80c-22.1 0-40-17.9-40-40V144.7l173.8 108c13 8.1 27.6 12.2 42.2 12.2s29.2-4.1 42.2-12.2l173.8-108v126.8c0 11 9 20 20 20zm-214.9-72.7c-13 8.1-29.2 8.1-42.2 0L56.7 108c6.6-4.7 14.6-7.5 23.3-7.5h352c8.7 0 16.7 2.8 23.3 7.5L277.1 218.8z"/></symbol><symbol viewBox="0 0 512 512" id="enter" xmlns="http://www.w3.org/2000/svg"><path d="M512 80v352c0 44.1-35.9 80-80 80H231c-44.1 0-80-35.9-80-80v-40c0-11 9-20 20-20s20 9 20 20v40c0 22.1 17.9 40 40 40h201c22.1 0 40-17.9 40-40V80c0-22.1-17.9-40-40-40H231c-22.1 0-40 17.9-40 40v40c0 11-9 20-20 20s-20-9-20-20V80c0-44.1 35.9-80 80-80h201c44.1 0 80 35.9 80 80zM225.9 307.8c-7.8 7.8-7.9 20.4-.1 28.3 3.9 3.9 9.1 5.9 14.2 5.9s10.2-1.9 14.1-5.8l45.1-44.8c9.5-9.4 14.8-22 14.8-35.4s-5.2-26-14.8-35.4l-45.1-44.8c-7.8-7.8-20.5-7.7-28.3.1-7.8 7.8-7.7 20.5.1 28.3L258 236H20c-11 0-20 9-20 20s9 20 20 20h238l-32.1 31.8z"/></symbol><symbol viewBox="0 0 512 512" id="ethereum" xmlns="http://www.w3.org/2000/svg"><path d="M428.6 273.8l-142-256.2C280.6 6.7 269.2 0 256.9 0s-23.7 6.6-29.7 17.4L83.4 273.6c-6.6 11.8-5.6 26.3 2.5 37.1l140.9 187.6c6.4 8.6 16.5 13.6 27.2 13.6h5.8c10.8 0 20.9-5.1 27.4-13.8L313 464c6.6-9 4.7-21.6-4.4-28.1-8.9-6.4-21.3-4.5-27.8 4.3l-24 31.7-101.6-135.3 94.8 35.2c2.2.8 4.6 1.3 7 1.3 2.4 0 4.7-.4 7-1.3l90.7-33.7-20.8 27c-6.8 9.2-4.5 22.3 5 28.6 8.9 5.9 20.8 3.8 27.1-4.8l60.1-78.3c8-10.7 8.9-25.1 2.5-36.8zm-191.7 50.4l-83.7-31.1 83.7-31.1v62.2zm40-62.2l83.8 31.1-83.8 31.1V262zm95.4-7.2L277 219.4V82.6l95.3 172.2zM236.9 81.7v137.7l-97.6 36.2 97.6-173.9z"/></symbol><symbol class="amsvg-inline--fa amfa-facebook-f amfa-w-10" viewBox="0 0 320 512" id="facebook" xmlns="http://www.w3.org/2000/svg"><path d="M279.14 288l14.22-92.66h-88.91v-60.13c0-25.35 12.42-50.06 52.24-50.06h40.42V6.26S260.43 0 225.36 0c-73.22 0-121.08 44.38-121.08 124.72v70.62H22.89V288h81.39v224h100.17V288z"/></symbol><symbol class="ansvg-inline--fa anfa-facebook anfa-w-16" viewBox="0 0 512 512" id="facebook-brands" xmlns="http://www.w3.org/2000/svg"><path d="M504 256C504 119 393 8 256 8S8 119 8 256c0 123.78 90.69 226.38 209.25 245V327.69h-63V256h63v-54.64c0-62.15 37-96.48 93.67-96.48 27.14 0 55.52 4.84 55.52 4.84v61h-31.28c-30.8 0-40.41 19.12-40.41 38.73V256h68.78l-11 71.69h-57.78V501C413.31 482.38 504 379.78 504 256z"/></symbol><symbol viewBox="0 0 512 512" id="graph" xmlns="http://www.w3.org/2000/svg"><path d="M237 303.9v-11.1c0-4.1 3.3-7.5 7.5-7.5s7.5 3.3 7.5 7.5v11.1h18v-11.1c0-4.1 3.4-7.5 7.5-7.5s7.5 3.3 7.5 7.5v12c6.2 1.4 11.8 4.6 16.1 9 6.1 6 9.9 14.4 9.9 23.5 0 10.1-4.6 19.5-12.4 25.9 7.8 6.3 12.4 15.8 12.4 25.8 0 9.2-3.8 17.5-9.9 23.6-4.4 4.4-10 7.5-16.1 8.9v12c0 4.1-3.4 7.5-7.5 7.5s-7.5-3.4-7.5-7.5v-11.1h-18v11.1c0 4.1-3.3 7.5-7.5 7.5-4.1 0-7.5-3.4-7.5-7.5v-11.1h-28.5c-4.1 0-7.5-3.3-7.5-7.5 0-4.1 3.4-7.5 7.5-7.5h9V319h-9c-4.1 0-7.5-3.3-7.5-7.5s3.4-7.5 7.5-7.5c9.5-.1 19-.1 28.5-.1zM73.8 119.6l38.7-12.3c-.1-1.2-.2-2.4-.2-3.7 0-10.1 4.1-19.3 10.7-25.9 6.6-6.6 15.8-10.7 25.9-10.7s19.3 4.1 25.9 10.7c6.6 6.6 10.7 15.8 10.7 25.9 0 1.2-.1 2.5-.2 3.7l38.7 12.3c1.6-2.9 3.7-5.6 6-7.9 6.6-6.6 15.8-10.7 25.9-10.7 9.9 0 19.3 4 26.2 11.1l46.5-29.5c-1.5-4-2.3-8.4-2.3-12.9 0-10.1 4.1-19.3 10.7-25.9 6.6-6.6 15.8-10.7 25.9-10.7 10.1 0 19.2 4.1 25.9 10.7 6.6 6.6 10.7 15.8 10.7 25.9 0 1.2-.1 2.5-.2 3.7L438 85.7c1.6-2.9 3.7-5.6 6-7.9 6.6-6.6 15.8-10.7 25.9-10.7s19.3 4.1 25.9 10.7c6.6 6.6 10.7 15.8 10.7 25.9 0 10.1-4.1 19.2-10.7 25.9-6.6 6.6-15.8 10.7-25.9 10.7s-19.3-4.1-25.9-10.7c-7.8-7.8-11.6-18.6-10.5-29.6L395 87.7c-1.6 2.9-3.7 5.6-6 7.9-6.6 6.6-15.8 10.7-25.9 10.7-9.9 0-19.3-4-26.2-11.1l-46.5 29.5c1.5 4 2.3 8.4 2.3 12.9 0 10.1-4.1 19.3-10.7 25.9-6.6 6.6-15.8 10.7-25.9 10.7s-19.2-4.1-25.9-10.7c-6.6-6.6-10.7-15.8-10.7-25.9 0-1.2.1-2.5.2-3.7L181 121.6c-1.6 2.9-3.7 5.6-6 7.9-6.6 6.6-15.8 10.7-25.9 10.7s-19.3-4.1-25.9-10.7c-2.3-2.4-4.4-5-6-7.9L78.4 134c.1 1.2.2 2.4.2 3.7 0 10.1-4.1 19.3-10.7 25.9-6.6 6.6-15.8 10.7-25.9 10.7-10.1 0-19.3-4.1-25.9-10.7-6.6-6.6-10.7-15.8-10.7-25.9s4.1-19.3 10.7-25.9c6.6-6.6 15.8-10.7 25.9-10.7 10.1 0 19.2 4.1 25.9 10.7 2.3 2.3 4.3 5 5.9 7.8zm-16.6 2.8c-3.9-3.9-9.3-6.3-15.3-6.3s-11.4 2.4-15.3 6.3-6.3 9.3-6.3 15.3 2.4 11.4 6.3 15.3c3.9 3.9 9.3 6.3 15.3 6.3s11.4-2.4 15.3-6.3c3.9-3.9 6.3-9.3 6.3-15.3s-2.4-11.4-6.3-15.3zm107-34c-3.9-3.9-9.3-6.3-15.3-6.3s-11.4 2.4-15.3 6.3c-3.9 3.9-6.4 9.3-6.4 15.3s2.4 11.4 6.4 15.3c3.9 3.9 9.3 6.3 15.3 6.3s11.4-2.4 15.3-6.3c3.9-3.9 6.4-9.3 6.4-15.3s-2.4-11.4-6.4-15.3zm107.1 34c-3.9-3.9-9.3-6.3-15.3-6.3s-11.4 2.4-15.3 6.3c-3.9 3.9-6.4 9.3-6.4 15.3s2.4 11.4 6.4 15.3c3.9 3.9 9.3 6.3 15.3 6.3s11.4-2.4 15.3-6.3c3.9-3.9 6.3-9.3 6.3-15.3s-2.4-11.4-6.3-15.3zm214.1-34c-3.9-3.9-9.3-6.3-15.3-6.3s-11.4 2.4-15.3 6.3c-3.9 3.9-6.3 9.3-6.3 15.3s2.4 11.4 6.3 15.3c3.9 3.9 9.3 6.3 15.3 6.3s11.4-2.4 15.3-6.3c3.9-3.9 6.3-9.3 6.3-15.3s-2.4-11.4-6.3-15.3zm-107.1-34c-3.9-3.9-9.3-6.3-15.3-6.3s-11.4 2.4-15.3 6.3-6.3 9.3-6.3 15.3 2.4 11.4 6.3 15.3c3.9 3.9 9.3 6.3 15.3 6.3s11.4-2.4 15.3-6.3c3.9-3.9 6.3-9.3 6.3-15.3.1-6-2.3-11.4-6.3-15.3zM240.2 464.1c4.1.6 6.9 4.4 6.2 8.5s-4.4 6.9-8.5 6.2c-28.3-4.4-53.2-18.9-71-39.6-17.5-20.5-28.1-47.1-28.1-76.1 0-9.1 1-18 3-26.5h-27.2c-4.1 0-7.5-3.4-7.5-7.5v-93.4c0-4.1 3.4-7.5 7.5-7.5s7.5 3.4 7.5 7.5v85.9h24.3c6.3-16.8 16.5-31.8 29.5-44.1V185h-53.8v16.8c0 4.1-3.4 7.5-7.5 7.5s-7.5-3.4-7.5-7.5v-24.3c0-4.1 3.4-7.5 7.5-7.5h68.8c4.1 0 7.5 3.3 7.5 7.5v88.2c7.2-4.8 15-8.9 23.2-12v-42.1c0-4.1 3.3-7.5 7.5-7.5h68.8c4.1 0 7.5 3.4 7.5 7.5v42.1c8.2 3.2 16 7.2 23.2 12v-63.9c0-4.1 3.3-7.5 7.5-7.5 4.1 0 7.5 3.3 7.5 7.5v75.8c.9.9 1.8 1.7 2.7 2.6 11.6 11.6 20.8 25.7 26.8 41.4H390V151h-53.8v16.8c0 4.1-3.3 7.5-7.5 7.5s-7.5-3.3-7.5-7.5v-24.3c0-4.2 3.3-7.5 7.5-7.5h68.8c4.2 0 7.5 3.3 7.5 7.5v185.6c0 4.1-3.3 7.5-7.5 7.5h-27.2c2 8.5 3 17.4 3 26.5 0 29.1-10.6 55.6-28.1 76.1-17.8 20.8-42.7 35.3-71 39.6-4.1.7-7.9-2.2-8.5-6.2-.6-4.1 2.2-7.9 6.2-8.5 24.7-3.8 46.4-16.5 61.9-34.6 15.3-17.9 24.5-41 24.5-66.4 0-27.1-10.7-53-29.9-72.3-19.2-19.2-45-29.9-72.3-29.9-27.1 0-53 10.7-72.3 29.9-19.3 19.3-29.9 45.2-29.9 72.3 0 25.4 9.2 48.6 24.5 66.4 15.4 18.1 37.2 30.8 61.8 34.6zM229.1 249c8.6-2 17.7-3.1 26.9-3.1 9.3 0 18.3 1.1 26.9 3.1v-30h-53.8v30zm206.6-79h68.8c4.1 0 7.5 3.3 7.5 7.5v151.6c0 4.1-3.3 7.5-7.5 7.5h-68.8c-4.1 0-7.5-3.4-7.5-7.5V177.4c0-4.1 3.4-7.4 7.5-7.4zm61.3 15h-53.8v136.6H497V185zM7.5 203.9h68.8c4.1 0 7.5 3.4 7.5 7.5V329c0 4.1-3.3 7.5-7.5 7.5H7.5c-4.1 0-7.5-3.4-7.5-7.5V211.4c0-4.1 3.4-7.5 7.5-7.5zm61.3 15H15v102.7h53.8V218.9zm208.7 151.6h-45v36.7h45c5.1 0 9.8-2.1 13.1-5.4 3.3-3.3 5.4-7.9 5.4-13 0-5-2.1-9.6-5.4-12.9-3.3-3.3-8-5.4-13.1-5.4zm0-51.6h-45v36.7h45c5.1 0 9.8-2.1 13.1-5.4 3.3-3.3 5.4-7.9 5.4-13 0-5-2.1-9.6-5.4-12.9-3.3-3.4-8-5.4-13.1-5.4z"/></symbol><symbol viewBox="0 0 511 511" id="hide" xmlns="http://www.w3.org/2000/svg"><path d="M34.008 6.834c-7.782-7.782-20.394-7.782-28.171 0-7.782 7.778-7.782 20.394 0 28.171l89.045 89.045C50.57 160.487 21.95 204.51 8.032 229.29c-9.361 16.667-9.439 36.608-.207 53.341 11.988 21.735 38.214 63.544 79.134 99.329 49.949 43.684 106.46 65.957 167.976 66.246.09 0 .175.012.265.012.172 0 .343-.004.515-.004.136 0 .277.004.417.004 45.134 0 87.883-11.984 127.271-35.641l92.561 92.557c3.891 3.891 8.986 5.836 14.086 5.836s10.195-1.945 14.086-5.836c7.782-7.778 7.782-20.394 0-28.171L34.008 6.834zm154.424 210.767l28.873 28.873a40.034 40.034 0 00-1.041 12.659c1.489 19.396 17.173 35.076 36.569 36.569a40.269 40.269 0 0012.659-1.041l28.881 28.881c-29.766 17.002-68.054 12.635-93.321-12.628-25.138-25.133-29.551-63.55-12.62-93.313zM42.709 263.387c-2.522-4.573-2.499-10.027.062-14.589 12.795-22.784 39.4-63.704 80.425-96.433l36.378 36.378c-32.187 46.047-27.349 109.692 13.306 150.343 22.951 22.955 53.017 34.511 83.13 34.511 23.497 0 47.021-7.045 67.216-21.201l30.663 30.663c-30.725 16.717-63.645 25.22-98.144 25.31-120.201-.214-189.016-101.434-213.036-144.982zM177.048 98.05c-2.99-10.589 3.166-21.595 13.754-24.589 23.134-6.534 44.503-9.715 65.325-9.715 61.325 0 117.949 22.327 168.3 66.362 40.908 35.778 67.396 77.544 79.54 99.255 9.302 16.62 9.38 36.507.211 53.193a19.83 19.83 0 01-2.83 3.926c-8.768 15.442-22.682 37.294-41.961 59.895-3.941 4.62-9.536 6.994-15.166 6.994-4.573 0-9.17-1.563-12.92-4.764-8.37-7.142-9.365-19.715-2.226-28.086 18.78-22.012 31.871-43.22 39.544-57.134a20.233 20.233 0 011.801-2.713c1.248-3.91.838-8.175-1.22-11.856-24.429-43.669-94.093-145.228-213.072-145.228-17.107 0-34.932 2.686-54.495 8.211-10.585 2.99-21.594-3.162-24.585-13.751zm81.33 40.429c30.483.616 59.146 12.834 80.713 34.398 22.195 22.199 34.421 51.711 34.421 83.107 0 11.002-8.916 19.918-19.922 19.918-11.002 0-19.918-8.916-19.918-19.918 0-20.752-8.082-40.261-22.756-54.936-14.253-14.253-33.201-22.327-53.349-22.737-10.998-.222-19.735-9.322-19.513-20.32.226-11.002 9.294-19.734 20.324-19.512z"/></symbol><symbol class="aqsvg-inline--fa aqfa-info-circle aqfa-w-16" viewBox="0 0 512 512" id="info-circle-solid" xmlns="http://www.w3.org/2000/svg"><path d="M256 8C119.043 8 8 119.083 8 256c0 136.997 111.043 248 248 248s248-111.003 248-248C504 119.083 392.957 8 256 8zm0 110c23.196 0 42 18.804 42 42s-18.804 42-42 42-42-18.804-42-42 18.804-42 42-42zm56 254c0 6.627-5.373 12-12 12h-88c-6.627 0-12-5.373-12-12v-24c0-6.627 5.373-12 12-12h12v-64h-12c-6.627 0-12-5.373-12-12v-24c0-6.627 5.373-12 12-12h64c6.627 0 12 5.373 12 12v100h12c6.627 0 12 5.373 12 12v24z"/></symbol><symbol class="arsvg-inline--fa arfa-instagram arfa-w-14" viewBox="0 0 448 512" id="instagram" xmlns="http://www.w3.org/2000/svg"><path d="M224.1 141c-63.6 0-114.9 51.3-114.9 114.9s51.3 114.9 114.9 114.9S339 319.5 339 255.9 287.7 141 224.1 141zm0 189.6c-41.1 0-74.7-33.5-74.7-74.7s33.5-74.7 74.7-74.7 74.7 33.5 74.7 74.7-33.6 74.7-74.7 74.7zm146.4-194.3c0 14.9-12 26.8-26.8 26.8-14.9 0-26.8-12-26.8-26.8s12-26.8 26.8-26.8 26.8 12 26.8 26.8zm76.1 27.2c-1.7-35.9-9.9-67.7-36.2-93.9-26.2-26.2-58-34.4-93.9-36.2-37-2.1-147.9-2.1-184.9 0-35.8 1.7-67.6 9.9-93.9 36.1s-34.4 58-36.2 93.9c-2.1 37-2.1 147.9 0 184.9 1.7 35.9 9.9 67.7 36.2 93.9s58 34.4 93.9 36.2c37 2.1 147.9 2.1 184.9 0 35.9-1.7 67.7-9.9 93.9-36.2 26.2-26.2 34.4-58 36.2-93.9 2.1-37 2.1-147.8 0-184.8zM398.8 388c-7.8 19.6-22.9 34.7-42.6 42.6-29.5 11.7-99.5 9-132.1 9s-102.7 2.6-132.1-9c-19.6-7.8-34.7-22.9-42.6-42.6-11.7-29.5-9-99.5-9-132.1s-2.6-102.7 9-132.1c7.8-19.6 22.9-34.7 42.6-42.6 29.5-11.7 99.5-9 132.1-9s102.7-2.6 132.1 9c19.6 7.8 34.7 22.9 42.6 42.6 11.7 29.5 9 99.5 9 132.1s2.7 102.7-9 132.1z"/></symbol><symbol viewBox="0 0 512 512" id="key" xmlns="http://www.w3.org/2000/svg"><circle cx="364" cy="140.1" r="32"/><path d="M506.5 165.9c-10.7-27.2-30.3-66.4-62.9-98.9-32.6-32.4-71.4-51.4-98.2-61.7-29.5-11.3-62.9-4.2-85.3 18.1l-78.5 78.2c-23.3 23.2-30 58.8-16.7 88.7 4.1 9.3 8.6 18.3 13.4 27.1L5.9 389.8c-3.8 3.8-5.9 8.8-5.9 14.1v88c0 11 9 20 20 20h88c11 0 20-9 20-20v-36h36c11 0 20-9 20-20v-36h36c11 0 20-9 20-20s-9-20-20-20h-56c-11 0-20 9-20 20v36h-36c-11 0-20 9-20 20v36H40v-59.7l177.4-177.4c6.5-6.5 7.7-16.6 3-24.5-6.9-11.4-13.3-23.6-18.9-36.3-6.6-14.8-3.2-32.6 8.4-44.1l78.5-78.2c11.2-11.2 28-14.7 42.8-9.1 23.2 8.9 56.7 25.2 84.3 52.7 27.7 27.6 44.6 61.6 53.9 85.2 5.8 14.7 2.3 31.5-9 42.7l-79.5 79.1a40.334 40.334 0 01-44 8.6c-12.5-5.2-24.6-11.4-36-18.4-9.4-5.8-21.7-2.8-27.5 6.6-5.8 9.4-2.8 21.7 6.6 27.5 13.2 8.1 27.1 15.2 41.6 21.2 30.1 12.5 64.5 5.8 87.6-17.2l79.5-79.1c22.3-22.3 29.4-56 17.8-85.6z"/></symbol><symbol class="atsvg-inline--fa atfa-linkedin atfa-w-14" viewBox="0 0 448 512" id="linkedin-brands" xmlns="http://www.w3.org/2000/svg"><path d="M416 32H31.9C14.3 32 0 46.5 0 64.3v383.4C0 465.5 14.3 480 31.9 480H416c17.6 0 32-14.5 32-32.3V64.3c0-17.8-14.4-32.3-32-32.3zM135.4 416H69V202.2h66.5V416zm-33.2-243c-21.3 0-38.5-17.3-38.5-38.5S80.9 96 102.2 96c21.2 0 38.5 17.3 38.5 38.5 0 21.3-17.2 38.5-38.5 38.5zm282.1 243h-66.4V312c0-24.8-.5-56.7-34.5-56.7-34.6 0-39.9 27-39.9 54.9V416h-66.4V202.2h63.7v29.2h.9c8.9-16.8 30.6-34.5 62.9-34.5 67.2 0 79.7 44.3 79.7 101.9V416z"/></symbol><symbol viewBox="0 0 512.002 512.002" id="lock" xmlns="http://www.w3.org/2000/svg"><circle cx="338" cy="346.001" r="20"/><path d="M238 472.001H80c-22.056 0-40-17.944-40-40v-164c0-22.056 17.944-40 40-40h288c22.056 0 40 17.944 40 40v40c0 11.046 8.954 20 20 20s20-8.954 20-20v-40c0-44.112-35.888-80-80-80h-24.037v-70.534c0-64.771-53.832-117.466-120-117.466s-120 52.695-120 117.466v70.534H80c-44.112 0-80 35.888-80 80v164c0 44.112 35.888 80 80 80h158c11.046 0 20-8.954 20-20s-8.954-20-20-20zm-94.037-354.534c0-42.715 35.888-77.466 80-77.466s80 34.751 80 77.466v70.534h-160v-70.534z"/><path d="M503.643 325.739c-8.982-6.431-21.477-4.362-27.904 4.62l-98.581 137.7c-2.692 3.122-6.066 3.796-7.874 3.916-1.854.123-5.424-.112-8.567-3.061l-63.708-62.171c-7.906-7.716-20.568-7.559-28.282.345-7.715 7.905-7.561 20.567.345 28.282l63.82 62.281c.06.058.119.116.18.173C342.639 506.933 355.41 512 368.55 512c1.129 0 2.261-.037 3.393-.113 14.314-.954 27.679-7.915 36.666-19.097.232-.29.456-.585.673-.887l98.981-138.26c6.429-8.981 4.361-21.475-4.62-27.904z"/><circle cx="262" cy="346.001" r="20"/><circle cx="112" cy="346.001" r="20"/><circle cx="187" cy="346.001" r="20"/></symbol><symbol viewBox="0 0 512 512" id="login" xmlns="http://www.w3.org/2000/svg"><path d="M472 112h-16V56c0-22.091-17.909-40-40-40h-64c-22.091 0-40 17.909-40 40v56h-16c-13.238.04-23.96 10.762-24 24v88H56c-13.238.04-23.96 10.762-24 24v200h-7.04a8 8 0 00-6.16 2.96 7.912 7.912 0 00-1.6 6.72l6.96 32A7.999 7.999 0 0032 496h384a7.999 7.999 0 007.84-6.32l6.96-32a7.912 7.912 0 00-1.6-6.72 8 8 0 00-6.16-2.96H408V304h64c13.238-.04 23.96-10.762 24-24V136c-.04-13.238-10.762-23.96-24-24zM328 56c.04-13.238 10.762-23.96 24-24h64c13.238.04 23.96 10.762 24 24v56h-16V72c-.04-13.238-10.762-23.96-24-24h-32c-13.238.04-23.96 10.762-24 24v40h-16V56zm80 16v40h-48V72a8 8 0 018-8h32a8 8 0 018 8zM48 248a8 8 0 018-8h216v40c.04 13.238 10.762 23.96 24 24h96v144H248a8 8 0 00-8 8h-32a8 8 0 00-8-8H48V248zm365.04 216l-3.44 16H38.4l-3.44-16H192a8 8 0 008 8h48a8 8 0 008-8h157.04zM480 280a8 8 0 01-8 8H296a8 8 0 01-8-8V136a8 8 0 018-8h176a8 8 0 018 8v144z"/><path d="M419.288 156.512c-23.969-19.546-59.244-15.96-78.79 8.009-19.546 23.969-15.96 59.244 8.009 78.79a56 56 0 0011.637 7.313c1.45 13.175 13.306 22.681 26.481 21.231a24 24 0 0021.231-21.231c27.972-13.194 39.953-46.566 26.759-74.538a56.004 56.004 0 00-15.327-19.566v-.008zm-21.952 81.16a8 8 0 00-5.336 7.536V248a8 8 0 01-16 0v-2.792a8 8 0 00-5.328-7.536c-20.832-7.353-31.758-30.202-24.405-51.033a40.002 40.002 0 0129.013-25.727 42.142 42.142 0 018.616-.912c22.091.028 39.977 17.96 39.948 40.052a40 40 0 01-26.508 37.604v.016zM264 304v80c-.04 13.238-10.762 23.96-24 24h-80c-13.238-.04-23.96-10.762-24-24v-16h16v16a8 8 0 008 8h80a8 8 0 008-8v-80a8 8 0 00-8-8h-80a8 8 0 00-8 8v16h-16v-16c.04-13.238 10.762-23.96 24-24h80c13.238.04 23.96 10.762 24 24z"/><path d="M205.68 349.68l-32 32-11.36-11.36 18.4-18.32H88v-16h92.72l-18.4-18.32 11.36-11.36 32 32c2.559 3.011 2.02 7.891 0 11.36z"/></symbol><symbol viewBox="0 0 364.492 318.784" id="logo" xmlns="http://www.w3.org/2000/svg"><path d="M92.228 241.674h-2.696a3.525 3.525 0 01-3.525-3.525v-13.351a3.525 3.525 0 013.525-3.524h2.696a3.524 3.524 0 013.524 3.524v13.351a3.524 3.524 0 01-3.524 3.525m22.997 0h-2.696a3.525 3.525 0 01-3.525-3.525v-17.906a3.525 3.525 0 013.525-3.525h2.696a3.525 3.525 0 013.525 3.525v17.906a3.525 3.525 0 01-3.525 3.525m22.997 0h-2.697a3.525 3.525 0 01-3.524-3.525v-29.187a3.524 3.524 0 013.524-3.524h2.697a3.524 3.524 0 013.524 3.524v29.187a3.525 3.525 0 01-3.524 3.525m22.996 0h-2.696a3.525 3.525 0 01-3.525-3.525v-40.187a3.525 3.525 0 013.525-3.524h2.696a3.524 3.524 0 013.524 3.524v40.187a3.525 3.525 0 01-3.524 3.525m22.997 0h-2.697a3.525 3.525 0 01-3.525-3.525v-52.992a3.525 3.525 0 013.525-3.524h2.697a3.524 3.524 0 013.524 3.524v52.992a3.525 3.525 0 01-3.524 3.525m22.997 0h-2.696a3.525 3.525 0 01-3.525-3.525v-40.187a3.525 3.525 0 013.525-3.524h2.696a3.524 3.524 0 013.524 3.524v40.187a3.525 3.525 0 01-3.524 3.525m22.997 0h-2.696a3.525 3.525 0 01-3.526-3.525v-29.187a3.525 3.525 0 013.526-3.524h2.696a3.524 3.524 0 013.524 3.524v29.187a3.526 3.526 0 01-3.524 3.525m22.996 0h-2.696a3.525 3.525 0 01-3.525-3.525v-17.906a3.525 3.525 0 013.525-3.525h2.696a3.525 3.525 0 013.525 3.525v17.906a3.525 3.525 0 01-3.525 3.525m22.997 0h-2.696a3.525 3.525 0 01-3.525-3.525v-13.351a3.525 3.525 0 013.525-3.524h2.696a3.524 3.524 0 013.524 3.524v13.351a3.525 3.525 0 01-3.524 3.525"/><path d="M162.26 1.667h41.778a6.078 6.078 0 015.731 4.053l69.597 196.711c1.72 4.861-3.011 9.522-7.846 7.73l-39.282-14.563a7.296 7.296 0 01-4.411-4.61l-5.097-15.878a6.08 6.08 0 00-5.789-4.222h-69.61a6.08 6.08 0 00-5.774 4.177l-5.278 16.005a7.296 7.296 0 01-4.33 4.532l-37.682 14.371c-4.85 1.85-9.638-2.837-7.893-7.726L156.533 5.704a6.083 6.083 0 015.727-4.037m1.189 132.516h37.807c4.121 0 7.048-4.015 5.789-7.939l-18.648-58.086c-1.8-5.606-9.72-5.638-11.564-.046l-19.158 58.086c-1.298 3.933 1.632 7.985 5.774 7.985M21.559 261.805H35.11l20.278 57.313H42.4l-3.781-11.781H17.512l-3.885 11.781H1.1l20.459-57.313zm-.789 35.655h14.678l-7.24-22.552-7.438 22.552zm41.247-35.654h11.082v57.313H62.017zm39.428-.527c.57.039 1.348.098 2.333.175v9.021c-.622-.078-1.666-.136-3.13-.175-1.465-.039-2.476.286-3.033.972-.558.688-.836 1.445-.836 2.275v3.577h7.271v7.815h-7.271v34.179H85.775v-34.179h-6.221v-7.815h6.065v-2.722c0-4.536.765-7.66 2.295-9.371 1.607-2.539 5.482-3.811 11.626-3.811.699 0 1.335.02 1.905.059m25.769 32.06c2.063-.259 3.538-.583 4.426-.973 1.593-.672 2.389-1.722 2.389-3.149 0-1.736-.611-2.936-1.832-3.597-1.223-.661-3.016-.991-5.38-.991-2.654 0-4.534.649-5.637 1.944-.789.959-1.314 2.255-1.576 3.888h-10.693c.234-3.706 1.275-6.752 3.124-9.137 2.941-3.733 7.992-5.599 15.152-5.599 4.66 0 8.799.921 12.418 2.761 3.619 1.84 5.428 5.314 5.428 10.42v19.442c0 1.349.026 2.981.078 4.899.078 1.452.297 2.438.661 2.955.363.519.907.947 1.633 1.284v1.632h-12.054a12.274 12.274 0 01-.699-2.41 28.285 28.285 0 01-.311-2.566 22.903 22.903 0 01-5.32 4.238c-2.398 1.373-5.111 2.061-8.135 2.061-3.859 0-7.046-1.096-9.562-3.286-2.517-2.19-3.774-5.294-3.774-9.313 0-5.21 2.023-8.981 6.071-11.314 2.22-1.271 5.484-2.178 9.793-2.722l3.8-.467zm6.776 5.171c-.71.441-1.426.798-2.148 1.069-.724.273-1.715.526-2.976.759l-2.523.467c-2.364.415-4.062.92-5.094 1.516-1.745 1.011-2.617 2.58-2.617 4.705 0 1.893.532 3.259 1.599 4.102 1.065.843 2.362 1.264 3.888 1.264 2.422 0 4.652-.7 6.693-2.1 2.04-1.4 3.099-3.953 3.178-7.66v-4.122zm66.276-36.705v10.148h-17.147v47.165h-12.055v-47.165h-17.225v-10.148zm25.294 13.939c.142.013.46.032.952.059v11.353a29.921 29.921 0 00-3.188-.194c-4.459 0-7.453 1.452-8.983 4.354-.855 1.634-1.283 4.149-1.283 7.544v20.258h-11.159v-42.383h10.576v7.388c1.711-2.825 3.201-4.756 4.472-5.793 2.074-1.737 4.769-2.606 8.088-2.606.207 0 .381.007.525.02m24.233 17.595c2.062-.259 3.538-.583 4.425-.973 1.593-.672 2.39-1.722 2.39-3.149 0-1.736-.611-2.936-1.833-3.597s-3.016-.991-5.38-.991c-2.653 0-4.533.649-5.637 1.944-.788.959-1.313 2.255-1.576 3.888H231.49c.233-3.706 1.274-6.752 3.124-9.137 2.941-3.733 7.992-5.599 15.151-5.599 4.66 0 8.8.921 12.419 2.761 3.618 1.84 5.428 5.314 5.428 10.42v19.442c0 1.349.025 2.981.078 4.899.077 1.452.297 2.438.661 2.955.363.519.906.947 1.633 1.284v1.632H257.93a12.35 12.35 0 01-.7-2.41 28.672 28.672 0 01-.31-2.566 22.924 22.924 0 01-5.32 4.238c-2.398 1.373-5.111 2.061-8.135 2.061-3.859 0-7.046-1.096-9.562-3.286-2.517-2.19-3.774-5.294-3.774-9.313 0-5.21 2.023-8.981 6.071-11.314 2.22-1.271 5.484-2.178 9.793-2.722l3.8-.467zm6.776 5.171a12.24 12.24 0 01-2.148 1.069c-.724.273-1.715.526-2.976.759l-2.523.467c-2.365.415-4.063.92-5.094 1.516-1.745 1.011-2.617 2.58-2.617 4.705 0 1.893.532 3.259 1.598 4.102 1.066.843 2.363 1.264 3.889 1.264 2.422 0 4.652-.7 6.692-2.1 2.04-1.4 3.1-3.953 3.179-7.66v-4.122zm43.199-21.094c1.996 1.128 3.617 2.689 4.861 4.685v-20.22h11.237v57.237h-10.771v-5.871c-1.581 2.514-3.382 4.342-5.404 5.482s-4.537 1.711-7.544 1.711c-4.951 0-9.118-2.003-12.501-6.008-3.383-4.005-5.074-9.143-5.074-15.417 0-7.232 1.666-12.922 4.997-17.069 3.33-4.148 7.782-6.222 13.357-6.222 2.566 0 4.846.564 6.842 1.692m2.722 30.192c1.634-2.332 2.45-5.353 2.45-9.06 0-5.183-1.309-8.89-3.928-11.12-1.607-1.347-3.473-2.022-5.598-2.022-3.241 0-5.619 1.224-7.135 3.675-1.517 2.449-2.275 5.489-2.275 9.118 0 3.915.771 7.045 2.313 9.39 1.542 2.346 3.882 3.519 7.019 3.519 3.136 0 5.521-1.167 7.154-3.5m51.065-30.014c2.956 1.324 5.398 3.415 7.324 6.269 1.736 2.52 2.862 5.44 3.376 8.763.299 1.947.42 4.751.366 8.412h-30.869c.172 4.251 1.65 7.232 4.432 8.942 1.693 1.064 3.73 1.595 6.11 1.595 2.525 0 4.576-.648 6.154-1.944.86-.7 1.621-1.672 2.281-2.916h11.313c-.297 2.514-1.668 5.067-4.108 7.66-3.796 4.121-9.111 6.182-15.945 6.182-5.641 0-10.616-1.738-14.929-5.214-4.312-3.477-6.467-9.133-6.467-16.969 0-7.342 1.946-12.972 5.838-16.89 3.893-3.917 8.944-5.876 15.156-5.876 3.689 0 7.011.663 9.968 1.986m-16.578 9.573c-1.566 1.614-2.55 3.802-2.952 6.561h19.092c-.202-2.943-1.186-5.174-2.952-6.698-1.768-1.522-3.959-2.285-6.574-2.285-2.843 0-5.049.808-6.614 2.422"/></symbol><symbol viewBox="0 0 364.492 58.614" id="logo-02" xmlns="http://www.w3.org/2000/svg"><path d="M21.559 1.635H35.11l20.278 57.313H42.4l-3.781-11.781H17.512l-3.885 11.781H1.1L21.559 1.635zM20.77 37.29h14.678l-7.24-22.552L20.77 37.29zM62.017 1.635h11.082v57.313H62.017zm39.428-.526c.57.039 1.348.098 2.333.175v9.021c-.622-.078-1.666-.136-3.13-.175-1.465-.039-2.476.286-3.033.972-.558.688-.836 1.445-.836 2.275v3.577h7.271v7.815h-7.271v34.179H85.775V24.769h-6.221v-7.815h6.065v-2.722c0-4.536.765-7.66 2.295-9.371C89.521 2.322 93.396 1.05 99.54 1.05c.699 0 1.335.02 1.905.059m25.769 32.06c2.063-.259 3.538-.583 4.426-.973 1.593-.672 2.389-1.722 2.389-3.149 0-1.736-.611-2.936-1.832-3.597-1.223-.661-3.016-.991-5.38-.991-2.654 0-4.534.649-5.637 1.944-.789.959-1.314 2.255-1.576 3.888h-10.693c.234-3.706 1.275-6.752 3.124-9.137 2.941-3.733 7.992-5.599 15.152-5.599 4.66 0 8.799.921 12.418 2.761 3.619 1.84 5.428 5.314 5.428 10.42v19.442c0 1.349.026 2.981.078 4.899.078 1.452.297 2.438.661 2.955.363.519.907.947 1.633 1.284v1.632h-12.054a12.274 12.274 0 01-.699-2.41 28.285 28.285 0 01-.311-2.566 22.903 22.903 0 01-5.32 4.238c-2.398 1.373-5.111 2.061-8.135 2.061-3.859 0-7.046-1.096-9.562-3.286-2.517-2.19-3.774-5.294-3.774-9.313 0-5.21 2.023-8.981 6.071-11.314 2.22-1.271 5.484-2.178 9.793-2.722l3.8-.467zm6.776 5.17c-.71.441-1.426.798-2.148 1.069-.724.273-1.715.526-2.976.759l-2.523.467c-2.364.415-4.062.92-5.094 1.516-1.745 1.011-2.617 2.58-2.617 4.705 0 1.893.532 3.259 1.599 4.102 1.065.843 2.362 1.264 3.888 1.264 2.422 0 4.652-.7 6.693-2.1 2.04-1.4 3.099-3.953 3.178-7.66v-4.122zm66.276-36.705v10.148h-17.147v47.165h-12.055V11.782h-17.225V1.634zm25.294 13.94c.142.013.46.032.952.059v11.353a29.921 29.921 0 00-3.188-.194c-4.459 0-7.453 1.452-8.983 4.354-.855 1.634-1.283 4.149-1.283 7.544v20.258h-11.159V16.565h10.576v7.388c1.711-2.825 3.201-4.756 4.472-5.793 2.074-1.737 4.769-2.606 8.088-2.606.207 0 .381.007.525.02m24.233 17.595c2.062-.259 3.538-.583 4.425-.973 1.593-.672 2.39-1.722 2.39-3.149 0-1.736-.611-2.936-1.833-3.597s-3.016-.991-5.38-.991c-2.653 0-4.533.649-5.637 1.944-.788.959-1.313 2.255-1.576 3.888H231.49c.233-3.706 1.274-6.752 3.124-9.137 2.941-3.733 7.992-5.599 15.151-5.599 4.66 0 8.8.921 12.419 2.761 3.618 1.84 5.428 5.314 5.428 10.42v19.442c0 1.349.025 2.981.078 4.899.077 1.452.297 2.438.661 2.955.363.519.906.947 1.633 1.284v1.632H257.93a12.35 12.35 0 01-.7-2.41 28.672 28.672 0 01-.31-2.566 22.924 22.924 0 01-5.32 4.238c-2.398 1.373-5.111 2.061-8.135 2.061-3.859 0-7.046-1.096-9.562-3.286-2.517-2.19-3.774-5.294-3.774-9.313 0-5.21 2.023-8.981 6.071-11.314 2.22-1.271 5.484-2.178 9.793-2.722l3.8-.467zm6.776 5.17a12.24 12.24 0 01-2.148 1.069c-.724.273-1.715.526-2.976.759l-2.523.467c-2.365.415-4.063.92-5.094 1.516-1.745 1.011-2.617 2.58-2.617 4.705 0 1.893.532 3.259 1.598 4.102 1.066.843 2.363 1.264 3.889 1.264 2.422 0 4.652-.7 6.692-2.1 2.04-1.4 3.1-3.953 3.179-7.66v-4.122zm43.199-21.093c1.996 1.128 3.617 2.689 4.861 4.685V1.711h11.237v57.237h-10.771v-5.871c-1.581 2.514-3.382 4.342-5.404 5.482s-4.537 1.711-7.544 1.711c-4.951 0-9.118-2.003-12.501-6.008-3.383-4.005-5.074-9.143-5.074-15.417 0-7.232 1.666-12.922 4.997-17.069 3.33-4.148 7.782-6.222 13.357-6.222 2.566 0 4.846.564 6.842 1.692m2.722 30.192c1.634-2.332 2.45-5.353 2.45-9.06 0-5.183-1.309-8.89-3.928-11.12-1.607-1.347-3.473-2.022-5.598-2.022-3.241 0-5.619 1.224-7.135 3.675-1.517 2.449-2.275 5.489-2.275 9.118 0 3.915.771 7.045 2.313 9.39 1.542 2.346 3.882 3.519 7.019 3.519 3.136 0 5.521-1.167 7.154-3.5m51.065-30.014c2.956 1.324 5.398 3.415 7.324 6.269 1.736 2.52 2.862 5.44 3.376 8.763.299 1.947.42 4.751.366 8.412h-30.869c.172 4.251 1.65 7.232 4.432 8.942 1.693 1.064 3.73 1.595 6.11 1.595 2.525 0 4.576-.648 6.154-1.944.86-.7 1.621-1.672 2.281-2.916h11.313c-.297 2.514-1.668 5.067-4.108 7.66-3.796 4.121-9.111 6.182-15.945 6.182-5.641 0-10.616-1.738-14.929-5.214-4.312-3.477-6.467-9.133-6.467-16.969 0-7.342 1.946-12.972 5.838-16.89 3.893-3.917 8.944-5.876 15.156-5.876 3.689 0 7.011.663 9.968 1.986m-16.578 9.573c-1.566 1.614-2.55 3.802-2.952 6.561h19.092c-.202-2.943-1.186-5.174-2.952-6.698-1.768-1.522-3.959-2.285-6.574-2.285-2.843 0-5.049.808-6.614 2.422"/></symbol><symbol viewBox="0 0 512 512" id="menu" xmlns="http://www.w3.org/2000/svg"><path d="M492 236H20c-11.046 0-20 8.954-20 20s8.954 20 20 20h472c11.046 0 20-8.954 20-20s-8.954-20-20-20zm0-160H20C8.954 76 0 84.954 0 96s8.954 20 20 20h472c11.046 0 20-8.954 20-20s-8.954-20-20-20zm0 320H20c-11.046 0-20 8.954-20 20s8.954 20 20 20h472c11.046 0 20-8.954 20-20s-8.954-20-20-20z"/></symbol><symbol viewBox="0 0 512 512" id="money" xmlns="http://www.w3.org/2000/svg"><path d="M424.3 148.3c-21.7 0-41.6 7.9-57 21.1l-37.2-31c8.5-13.5 13.5-29.5 13.5-46.7C343.7 43.3 304.3 4 256 4s-87.7 39.3-87.7 87.7c0 25.4 10.8 48.2 28.1 64.3l-61.3 54.5c-13.7-8.9-30-14-47.5-14C39.3 196.4 0 235.7 0 284.1s39.3 87.7 87.7 87.7 87.7-39.3 87.7-87.7c0-25.4-10.8-48.2-28.1-64.3l61.3-54.5c13.7 8.9 30 14 47.5 14 25.8 0 49-11.2 65.1-29l35.7 29.8c-12.6 15.2-20.1 34.6-20.1 55.8 0 48.3 39.3 87.7 87.7 87.7S512 284.3 512 236s-39.3-87.7-87.7-87.7zm-264 135.8c0 40.1-32.6 72.6-72.6 72.6S15 324.1 15 284.1s32.6-72.6 72.6-72.6 72.7 32.5 72.7 72.6zM256 164.3c-40.1 0-72.6-32.6-72.6-72.6S215.9 19 256 19s72.6 32.6 72.6 72.6-32.5 72.7-72.6 72.7zm168.3 144.3c-40.1 0-72.6-32.6-72.6-72.6 0-18.9 7.3-36.1 19.1-49.1 1.2-.4 2.3-1.2 3.2-2.2.6-.7 1-1.4 1.3-2.2 12.9-11.9 30.2-19.1 49.1-19.1 40.1 0 72.6 32.6 72.6 72.6s-32.6 72.6-72.7 72.6zm-264.5 88.2H95.7c-4.2 0-7.5 3.4-7.5 7.5v96.2c0 4.2 3.4 7.5 7.5 7.5h64.1c4.1 0 7.5-3.4 7.5-7.5v-96.2c0-4.2-3.3-7.5-7.5-7.5zm-7.5 96.2h-49.1v-81.2h49.1V493zm320.1-96.2h-64.1c-4.2 0-7.5 3.4-7.5 7.5v96.2c0 4.2 3.4 7.5 7.5 7.5h64.1c4.2 0 7.5-3.4 7.5-7.5v-96.2c0-4.2-3.3-7.5-7.5-7.5zm-7.5 96.2h-49.1v-81.2h49.1V493z"/><path d="M264 428.3c4.2 0 7.5-3.4 7.5-7.5V308.1c0-4.2-3.4-7.5-7.5-7.5h-64.1c-4.1 0-7.5 3.4-7.5 7.5v192.4c0 4.2 3.4 7.5 7.5 7.5H264c4.2 0 7.5-3.4 7.5-7.5v-44.6c0-4.2-3.4-7.5-7.5-7.5s-7.5 3.4-7.5 7.5V493h-49.1V315.6h49.1v105.2c0 4.2 3.4 7.5 7.5 7.5zm104.2-79.6h-64.1c-4.2 0-7.5 3.4-7.5 7.5v144.3c0 4.2 3.4 7.5 7.5 7.5h64.1c4.2 0 7.5-3.4 7.5-7.5V356.2c0-4.2-3.3-7.5-7.5-7.5zM360.7 493h-49.1V363.7h49.1V493zM242 46.8v-8.2c0-3.1 2.5-5.5 5.5-5.5 3.1 0 5.5 2.5 5.5 5.5v8.2h13.3v-8.2c0-3.1 2.5-5.5 5.5-5.5 3.1 0 5.5 2.5 5.5 5.5v8.8c4.6 1.1 8.7 3.4 11.9 6.6 4.5 4.5 7.3 10.6 7.3 17.4 0 7.4-3.4 14.4-9.2 19.1 5.7 4.7 9.2 11.6 9.2 19 0 6.8-2.8 12.9-7.3 17.4-3.2 3.2-7.3 5.5-11.9 6.6v8.8c0 3.1-2.5 5.5-5.5 5.5-3.1 0-5.5-2.5-5.5-5.5v-8.2H253v8.2c0 3.1-2.5 5.5-5.5 5.5-3.1 0-5.5-2.5-5.5-5.5v-8.2h-21c-3.1 0-5.5-2.5-5.5-5.5 0-3.1 2.5-5.5 5.5-5.5h6.6V57.8H221c-3.1 0-5.5-2.5-5.5-5.5s2.5-5.5 5.5-5.5h21zM271.9 96h-33.2v27h33.2c3.8 0 7.2-1.5 9.7-4 2.5-2.4 4-5.8 4-9.6 0-3.7-1.5-7.1-4-9.5s-6-3.9-9.7-3.9zm0-38.2h-33.2v27.1h33.2c3.8 0 7.2-1.5 9.7-4 2.5-2.4 4-5.8 4-9.6 0-3.7-1.5-7.1-4-9.5s-6-4-9.7-4zm-224 231l38.8 56 38.8-56-38.8-64.6-38.8 64.6zm38.8 36.5l-16.3-23.6 16.3 7.3 16.3-7.3-16.3 23.6zm0-28.5L62.5 286l24.2-40.3 24.2 40.3-24.2 10.8zm311.7-64.2c1.6-.4 2.6-2 2.2-3.7-.4-1.6-2-2.6-3.7-2.2-10.8 2.7-16.6 6.8-16.6 11.9 0 4.8 4.8 8.5 14.2 11.2 5.5 1.6 12.2 2.7 19.4 3.2v31c0 5.9 4.8 10.6 10.6 10.6s10.6-4.8 10.6-10.6v-31.1c7.1-.5 13.6-1.6 19-3.2 9.4-2.7 14.2-6.5 14.2-11.2 0-5-5.5-9-16-11.7-1.6-.4-3.3.6-3.7 2.2-.4 1.6.6 3.3 2.2 3.7 9.5 2.4 11.4 5.2 11.4 5.9 0 .8-2.4 3.3-9.8 5.4-4.9 1.4-10.8 2.4-17.3 2.9v-32.7H454c5.8 0 10.6-4.8 10.6-10.6 0-5.9-4.8-10.6-10.6-10.6h-58.8c-5.8 0-10.6 4.8-10.6 10.6 0 5.9 4.8 10.6 10.6 10.6H414V247c-6.7-.5-12.8-1.5-17.7-2.9-7.4-2.1-9.8-4.6-9.8-5.4-.1-.8 1.9-3.7 11.9-6.1zm30.7 51.4c0 2.5-2 4.6-4.5 4.6s-4.5-2.1-4.5-4.6v-30.7c1.4 0 2.9.1 4.3.1 1.6 0 3.2 0 4.7-.1V284zM417 208.1h-21.9c-2.5 0-4.5-2.1-4.5-4.6s2-4.6 4.5-4.6H454c2.5 0 4.5 2.1 4.5 4.6s-2 4.6-4.5 4.6h-21.9c-1.7 0-3 1.4-3 3v36.1c-1.6.1-3.1.1-4.7.1-1.5 0-2.9 0-4.3-.1v-36.1c-.1-1.7-1.4-3-3.1-3z"/></symbol><symbol viewBox="0 0 512 512" id="padlock" xmlns="http://www.w3.org/2000/svg"><path d="M460 362c11 0 20-9 20-20v-74c0-44.1-35.9-80-80-80h-24v-70.5C376 52.7 322.1 0 256 0S136 52.7 136 117.5V188h-24c-44.1 0-80 35.9-80 80v164c0 44.1 35.9 80 80 80h288c44.1 0 80-35.9 80-80 0-11-9-20-20-20s-20 9-20 20c0 22.1-17.9 40-40 40H112c-22.1 0-40-17.9-40-40V268c0-22.1 17.9-40 40-40h288c22.1 0 40 17.9 40 40v74c0 11 9 20 20 20zM336 188H176v-70.5c0-42.7 35.9-77.5 80-77.5s80 34.8 80 77.5V188z"/><circle cx="256" cy="347" r="20"/></symbol><symbol viewBox="0 0 512 512" id="profits" xmlns="http://www.w3.org/2000/svg"><path d="M45.3 283L5.6 323.9c-7.7 7.9-7.5 20.5.4 28.2 3.9 3.8 8.9 5.6 13.9 5.6 5.2 0 10.4-2 14.3-6.1L74 310.8c7.7-7.9 7.5-20.5-.4-28.2-8-7.7-20.6-7.5-28.3.4zm92.4 12.9c-11 0-20 8.9-20 20v175.7c0 11 8.9 20 20 20 11 0 20-8.9 20-20V315.9c0-11-8.9-20-20-20zm77.9-43.9c-11 0-20 8.9-20 20v219.6c0 11 8.9 20 20 20s20-8.9 20-20V272c-.1-11.1-9-20-20-20zM452.1.5h-59.9c-11 0-20 8.9-20 20s8.9 20 20 20h52.6L298.3 187c-3.9 3.9-9.1 6.2-14.2 6.2h-.3c-4.9-.1-9.9-2.3-13.7-6.2l-23.5-23.5c-11.5-11.5-26.7-18.1-41.8-18.3h-.4c-15.6 0-31.3 6.8-42.9 18.8l-42.8 43c-7.8 7.8-7.8 20.5.1 28.2 3.9 3.9 9 5.8 14.1 5.8s10.2-2 14.1-5.9l42.9-43 .2-.2c4.2-4.3 9.6-6.8 14.5-6.8 4.7 0 9.9 2.5 13.9 6.6l23.5 23.5c11.2 11.2 25.9 17.6 41.2 17.9 16 .3 31.8-6.2 43.5-17.9L472.1 69.6v49.6c0 11 8.9 20 20 20s20-8.9 20-20V60.4c-.1-33-27-59.9-60-59.9zM59 385.7c-11 0-20 8.9-20 20v85.8c0 11 8.9 20 20 20 11 0 20-8.9 20-20v-85.8c-.2-11-9-19.9-20-20zm392.1-214.5c-11 0-20 8.9-20 20v300.4c0 11 8.9 20 20 20 11 0 20-8.9 20-20V191.1c0-11-9-19.9-20-19.9zM293.4 277c-11 0-20 8.9-20 20v194.6c0 11 8.9 20 20 20 11 0 20-8.9 20-20V296.9c0-11-8.9-19.9-20-19.9zm78.8-38c-11 0-19.9 9-19.9 20v232.5c0 11 8.9 20 20 20 11 0 20-8.9 20-20V259c-.1-11.1-9-20-20.1-20z"/></symbol><symbol viewBox="0 0 512 512" id="refer" xmlns="http://www.w3.org/2000/svg"><path d="M250.9 271.9c1.7.1 3.4.1 5.1.1 1.6 0 3.2 0 4.7-.1 35.8.8 71 10.3 102.2 27.6 9.7 5.4 21.8 1.9 27.2-7.8s1.9-21.8-7.8-27.2c-14.3-8-29.4-14.5-44.9-19.7C370.5 220 392 180.5 392 136 392 61 331 0 256 0S120 61 120 136c0 44.5 21.5 84.1 54.6 108.9-30.4 10-58.9 25.5-83.8 46.1-45.7 37.6-77.5 90.1-89.5 147.7-3.8 18.1.7 36.6 12.4 50.9 11.6 14.2 28.7 22.4 47 22.4H217c11 0 20-9 20-20s-9-20-20-20H60.7c-8.5 0-13.7-4.8-16-7.6-4-4.9-5.5-11.3-4.2-17.5 20.7-99.8 108.8-172.6 210.4-175zM160 136c0-52.9 43.1-96 96-96s96 43.1 96 96c0 51.3-40.5 93.4-91.2 95.9-1.6 0-3.2-.1-4.8-.1-1.6 0-3.1 0-4.7.1-50.7-2.5-91.3-44.5-91.3-95.9zm352 235.8c0 13.4-5.2 25.9-14.7 35.4l-37.2 37c-3.9 3.9-9 5.8-14.1 5.8s-10.3-2-14.2-5.9c-7.8-7.8-7.8-20.5.1-28.3l24.9-24.8H343.5c-22.3 0-40.5 18.2-40.5 40.5s17.9 40.5 40 40.5c11 0 20 9 20 20s-9 20-20 20c-21.5 0-41.7-8.4-56.8-23.7-15-15.2-23.3-35.3-23.3-56.8 0-44.4 36.1-80.5 80.5-80.5H455l-23.1-22.8c-7.9-7.8-7.9-20.4-.2-28.3 7.8-7.9 20.4-7.9 28.3-.2l37.1 36.7c9.6 9.5 14.9 22.1 14.9 35.4z"/></symbol><symbol viewBox="0 0 480 480" id="registration" xmlns="http://www.w3.org/2000/svg"><path d="M480 360V136c-.026-22.08-17.92-39.974-40-40h-88V0h-16v184a8 8 0 008 8h27.12L240 270.672 108.88 192H136a8 8 0 008-8V0h-16v96H40c-22.08.026-39.974 17.92-40 40v224c.026 22.08 17.92 39.974 40 40h131.056l-16 32H8a8 8 0 00-8 8c0 40 42.152 40 56 40h368c13.848 0 56 0 56-40a8 8 0 00-8-8H324.944l-16-32H440c22.08-.026 39.974-17.92 40-40zM128 176H80a8 8 0 00-4.119 14.857l160 96a8.001 8.001 0 008.24 0l160-96a8.002 8.002 0 00-4.12-14.857h-48v-32h80v192H48V144h80v32zm335.032 272c-2.792 9.848-12.448 16-39.032 16H56c-26.584 0-36.24-6.152-39.032-16h446.064zm-290.088-16l16-32h102.112l16 32H172.944zM40 384c-13.255 0-24-10.745-24-24V136c0-13.255 10.745-24 24-24h88v16H40a8 8 0 00-8 8v208a8 8 0 008 8h400a8 8 0 008-8V136a8 8 0 00-8-8h-88v-16h88c13.255 0 24 10.745 24 24v224c0 13.255-10.745 24-24 24H40z"/><path d="M274.904 120.368A55.529 55.529 0 00296 80c0-52.896-30.456-64-56-64s-56 11.104-56 64a55.53 55.53 0 0021.096 40.392C183.89 123.005 167.969 141.033 168 162.4V192h16v-29.6c0-14.58 11.82-26.4 26.4-26.4h59.2c14.58 0 26.4 11.82 26.4 26.4V192h16v-29.6c.043-21.376-15.881-39.418-37.096-42.032zm-74.488-48.84C202.584 44.72 215.2 32 240 32c22.704 0 35.2 10.736 38.776 33.136l-26.656-16a8 8 0 00-11.704 4.328c-4.048 12.144-25.904 16.736-40 18.064zM240 120a50.402 50.402 0 01-38.888-32.416v-.024c13.696-1.128 38.4-5.272 49.92-20.432l28.592 17.152C276.416 103.896 252.28 120 240 120zm160 168v-16h-16v16h-16v16h16v16h16v-16h16v-16z"/></symbol><symbol viewBox="0 0 512 512" id="scroll" xmlns="http://www.w3.org/2000/svg"><path d="M256.2 430.1l-89.8-94.9 29.1-27.5 60.6 64.1 60.3-64.1 29.1 27.4-89.3 95zM422 392V120C422 53.8 368.2 0 302 0h-92C143.8 0 90 53.8 90 120v272c0 66.2 53.8 120 120 120h92c66.2 0 120-53.8 120-120zM302 40c44.1 0 80 35.9 80 80v272c0 44.1-35.9 80-80 80h-92c-44.1 0-80-35.9-80-80V120c0-44.1 35.9-80 80-80h92zm-46 41c-11 0-20 9-20 20s9 20 20 20 20-9 20-20-9-20-20-20zm0 80c-11 0-20 9-20 20s9 20 20 20 20-9 20-20-9-20-20-20zm0 80c-11 0-20 9-20 20s9 20 20 20 20-9 20-20-9-20-20-20z"/></symbol><symbol viewBox="0 0 512 512" id="settings" xmlns="http://www.w3.org/2000/svg"><path d="M20 106h233c11 0 20-9 20-20s-9-20-20-20H20C9 66 0 75 0 86s9 20 20 20zm353 65c33.1 0 60-26.9 60-60v-5h59c11 0 20-9 20-20s-9-20-20-20h-59v-6c0-33.1-26.9-60-60-60s-60 26.9-60 60v51c0 33.1 26.9 60 60 60zM353 60c0-11 9-20 20-20s20 9 20 20v51c0 11-9 20-20 20s-20-9-20-20V60zM253 407H20c-11 0-20 9-20 20s9 20 20 20h233c11 0 20-9 20-20s-9-20-20-20zM20 275.9h57c11 0 20-9 20-20s-9-20-20-20H20c-11 0-20 9-20 20s9 20 20 20zm472-40H257V229c0-33.1-26.9-60-60-60s-60 26.9-60 60v52c0 33.1 26.9 60 60 60s60-26.9 60-60v-5.1h235c11 0 20-9 20-20 0-11.1-9-20-20-20zM217 281c0 11-9 20-20 20s-20-9-20-20v-52c0-11 9-20 20-20s20 9 20 20v52zm275 126h-59v-6c0-33.1-26.9-60-60-60s-60 26.9-60 60v51c0 33.1 26.9 60 60 60s60-26.9 60-60v-5h59c11 0 20-9 20-20s-9-20-20-20zm-99 45c0 11-9 20-20 20s-20-9-20-20v-51c0-11 9-20 20-20s20 9 20 20v51z"/></symbol><symbol viewBox="0 0 512 512" id="smartphone" xmlns="http://www.w3.org/2000/svg"><path d="M413 352.1c11 0 20-9 20-20V80c0-44.1-35.9-80-80-80H159c-44.1 0-80 35.9-80 80v352c0 44.1 35.9 80 80 80h194c44.1 0 80-35.9 80-80 0-11-9-20-20-20s-20 9-20 20c0 22.1-17.9 40-40 40H159c-22.1 0-40-17.9-40-40V80c0-22.1 17.9-40 40-40h194c22.1 0 40 17.9 40 40v252.1c0 11.1 9 20 20 20z"/><circle cx="256" cy="421.1" r="20"/><path d="M296 91.1c0-11-9-20-20-20h-40c-11 0-20 9-20 20s9 20 20 20h40c11 0 20-8.9 20-20z"/></symbol><symbol viewBox="0 0 511 511" id="technical-support" xmlns="http://www.w3.org/2000/svg"><path d="M372.8 512h-1.1c-35.2-.2-73.6-9.1-114.1-26.6-10.1-4.4-14.8-16.1-10.4-26.2 4.4-10.1 16.1-14.8 26.2-10.4 35 15.1 69.1 23.2 98.5 23.3h.9c36.8 0 67.5-11.2 88.9-32.4l.1-.2c13-14.5 12.2-36.5-1.8-50-53.6-51.7-78.9-47.9-102.3-25.1l-37.3 37c-5.8 5.8-14.7 7.4-22.2 4.1-2.1-.9-52.3-23.7-108.9-80.2l-2.6-2.6c-56.6-56.6-79.3-106.8-80.3-108.9-3.4-7.5-1.7-16.3 4.1-22.2l37-37.3c22.8-23.4 26.6-48.7-25.1-102.3-13.5-14-35.5-14.8-50-1.8l-.2.1c-21.4 21.6-32.6 52.6-32.4 89.8.4 71.7 41 155 108.8 222.8l.2.2c12.9 12.9 27.7 25.8 43.9 38.2 8.7 6.7 10.4 19.2 3.7 28s-19.2 10.4-28 3.7c-17.5-13.4-33.5-27.4-47.7-41.5l-.2-.2C45.5 316.2.4 222.4 0 140.3-.2 92 15.1 51 44.4 21.7c.2-.3.5-.5.8-.7l.6-.5C60.5 7.2 79.5.3 99.3 1c19.8.7 38.2 8.9 51.9 23.2 26.9 27.9 42.4 51.2 48.8 73.5 8.9 30.7.8 59.1-24 84.5l-.1.1-26.8 27c9.5 16.8 30.4 49.7 65.8 85.1l2.6 2.6c35.7 35.7 68.3 56.4 85.1 65.8l27-26.8.1-.1c25.4-24.8 53.8-32.8 84.5-24 22.3 6.4 45.6 22 73.5 48.8 14.2 13.7 22.5 32.2 23.2 51.9.7 19.8-6.2 38.8-19.4 53.5l-.5.6c-.2.3-.5.5-.7.8-29.1 29.1-69.7 44.5-117.5 44.5zM511 125.8C511 57 455 1 386.2 1S261.5 57 261.5 125.8s56 124.8 124.8 124.8S511 194.5 511 125.8zm-39.9 0c0 46.8-38.1 84.8-84.8 84.8-46.8 0-84.8-38.1-84.8-84.8S339.6 41 386.3 41c46.7-.1 84.8 38 84.8 84.8zm-36 0c0-11-8.9-20-20-20H404V84.9c0-11-8.9-20-20-20-11 0-19.9 8.9-19.9 20v40.9c0 11 8.8 20 19.9 20h31c11.2-.1 20.1-9 20.1-20z"/></symbol><symbol class="bisvg-inline--fa bifa-telegram bifa-w-16" viewBox="0 0 496 512" id="telegram" xmlns="http://www.w3.org/2000/svg"><path d="M248 8C111 8 0 119 0 256s111 248 248 248 248-111 248-248S385 8 248 8zm121.8 169.9l-40.7 191.8c-3 13.6-11.1 16.9-22.4 10.5l-62-45.7-29.9 28.8c-3.3 3.3-6.1 6.1-12.5 6.1l4.4-63.1 114.9-103.8c5-4.4-1.1-6.9-7.7-2.5l-142 89.4-61.2-19.1c-13.3-4.2-13.6-13.3 2.8-19.7l239.1-92.2c11.1-4 20.8 2.7 17.2 19.5z"/></symbol><symbol class="bjsvg-inline--fa bjfa-telegram-plane bjfa-w-14" viewBox="0 0 448 512" id="telegram-plane" xmlns="http://www.w3.org/2000/svg"><path d="M446.7 98.6l-67.6 318.8c-5.1 22.5-18.4 28.1-37.3 17.5l-103-75.9-49.7 47.8c-5.5 5.5-10.1 10.1-20.7 10.1l7.4-104.9 190.9-172.5c8.3-7.4-1.8-11.5-12.9-4.1L117.8 284 16.2 252.2c-22.1-6.9-22.5-22.1 4.6-32.7L418.2 66.4c18.4-6.9 34.5 4.1 28.5 32.2z"/></symbol><symbol viewBox="0 0 512 512" id="title_element" xmlns="http://www.w3.org/2000/svg"><path d="M16.4 179.2H9.3c-5.1 0-9.3 4-9.3 9v34.1c0 5 4.2 9 9.3 9h7.1c5.1 0 9.3-4 9.3-9v-34.1c.1-4.9-4.1-9-9.3-9zm60.8 0h-7.1c-5.1 0-9.3 4-9.3 9V234c0 5 4.2 9 9.3 9h7.1c5.1 0 9.3-4 9.3-9v-45.8c0-4.9-4.1-9-9.3-9zm60.8 0h-7.1c-5.1 0-9.3 4-9.3 9v74.6c0 5 4.2 9 9.3 9h7.1c5.1 0 9.3-4 9.3-9v-74.6c0-4.9-4.2-9-9.3-9zm60.8 0h-7.1c-5.1 0-9.3 4-9.3 9V291c0 5 4.2 9 9.3 9h7.1c5.1 0 9.3-4 9.3-9V188.3c0-5-4.2-9.1-9.3-9.1zm60.8 0h-7.1c-5.1 0-9.3 4-9.3 9v135.5c0 5 4.2 9 9.3 9h7.1c5.1 0 9.3-4 9.3-9V188.3c0-5-4.2-9.1-9.3-9.1zm60.7 0h-7.1c-5.1 0-9.3 4-9.3 9V291c0 5 4.2 9 9.3 9h7.1c5.1 0 9.3-4 9.3-9V188.3c.1-5-4.1-9.1-9.3-9.1zm60.8 0H374c-5.1 0-9.3 4-9.3 9v74.6c0 5 4.2 9 9.3 9h7.1c5.1 0 9.3-4 9.3-9v-74.6c0-4.9-4.1-9-9.3-9zm60.8 0h-7.1c-5.1 0-9.3 4-9.3 9V234c0 5 4.2 9 9.3 9h7.1c5.1 0 9.3-4 9.3-9v-45.8c0-4.9-4.1-9-9.3-9zm60.8 0h-7.1c-5.1 0-9.3 4-9.3 9v34.1c0 5 4.2 9 9.3 9h7.1c5.1 0 9.3-4 9.3-9v-34.1c0-4.9-4.2-9-9.3-9z"/></symbol><symbol viewBox="0 0 512 512" id="user" xmlns="http://www.w3.org/2000/svg"><path d="M471.387 325.012c-16.969-14.91-37.547-27.793-61.168-38.289-10.098-4.484-21.914.063-26.398 10.156s.063 21.91 10.156 26.398c19.918 8.852 37.082 19.543 51.008 31.781C462.152 370.145 472 391.988 472 415v37c0 11.027-8.973 20-20 20H60c-11.027 0-20-8.973-20-20v-37c0-23.012 9.848-44.855 27.016-59.941C87.223 337.301 146.098 296 256 296c81.605 0 148-66.395 148-148S337.605 0 256 0 108 66.395 108 148c0 47.707 22.695 90.207 57.852 117.289-64.328 14.141-104.344 41.359-125.238 59.723C14.805 347.688 0 380.484 0 415v37c0 33.086 26.914 60 60 60h392c33.086 0 60-26.914 60-60v-37c0-34.516-14.805-67.312-40.613-89.988zM148 148c0-59.551 48.449-108 108-108s108 48.449 108 108-48.449 108-108 108-108-48.449-108-108z"/></symbol><symbol class="bmsvg-inline--fa bmfa-vk bmfa-w-18" viewBox="0 0 576 512" id="vk" xmlns="http://www.w3.org/2000/svg"><path d="M545 117.7c3.7-12.5 0-21.7-17.8-21.7h-58.9c-15 0-21.9 7.9-25.6 16.7 0 0-30 73.1-72.4 120.5-13.7 13.7-20 18.1-27.5 18.1-3.7 0-9.4-4.4-9.4-16.9V117.7c0-15-4.2-21.7-16.6-21.7h-92.6c-9.4 0-15 7-15 13.5 0 14.2 21.2 17.5 23.4 57.5v86.8c0 19-3.4 22.5-10.9 22.5-20 0-68.6-73.4-97.4-157.4-5.8-16.3-11.5-22.9-26.6-22.9H38.8c-16.8 0-20.2 7.9-20.2 16.7 0 15.6 20 93.1 93.1 195.5C160.4 378.1 229 416 291.4 416c37.5 0 42.1-8.4 42.1-22.9 0-66.8-3.4-73.1 15.4-73.1 8.7 0 23.7 4.4 58.7 38.1 40 40 46.6 57.9 69 57.9h58.9c16.8 0 25.3-8.4 20.4-25-11.2-34.9-86.9-106.7-90.3-111.5-8.7-11.2-6.2-16.2 0-26.2.1-.1 72-101.3 79.4-135.6z"/></symbol><symbol viewBox="0 0 512 512" id="wallet" xmlns="http://www.w3.org/2000/svg"><path d="M405 257c-33.1 0-60 26.9-60 60s26.9 60 60 60h85c.3 0 .7 0 1-.1h1c11 0 20-9 20-20V200c0-26.6-13.1-50.2-33.2-64.8l-68-111.6c-2.8-4.6-7.3-7.8-12.4-9-5.2-1.2-10.6-.4-15.2 2.5l-50.2 31-22.6-38.3c-2.7-4.6-7.2-7.9-12.4-9.2-5.2-1.3-10.7-.5-15.2 2.3L90.1 120H60c-10.9 0-19.7-8.7-20-19.5.3-10.8 9.1-19.5 20-19.5h37c11 0 20-9 20-20s-9-20-20-20H60C31.7 41 7.9 60.7 1.6 87.1.6 89.5 0 92.2 0 95v337c0 44.1 35.9 80 80 80h352c34.5 0 65-22 75.9-54.7 3.5-10.5-2.2-21.8-12.6-25.3-10.5-3.5-21.8 2.2-25.3 12.6-5.5 16.3-20.7 27.3-38 27.3H80c-22.1 0-40-17.9-40-40V156.6c6.3 2.2 13 3.4 20 3.4h372c22.1 0 40 17.9 40 40v57h-67zm67 80h-67c-11 0-20-9-20-20s9-20 20-20h67v40zM167.1 120l119.1-72.4 21.3 36c.4 1 .9 2 1.5 2.9.4.7.9 1.4 1.4 2L329 120H167.1zm208.4 0l-22.1-37.4 33.8-20.9 35.6 58.4h-47.3z"/></symbol><symbol class="bosvg-inline--fa bofa-whatsapp bofa-w-14" viewBox="0 0 448 512" id="whatsapp" xmlns="http://www.w3.org/2000/svg"><path d="M380.9 97.1C339 55.1 283.2 32 223.9 32c-122.4 0-222 99.6-222 222 0 39.1 10.2 77.3 29.6 111L0 480l117.7-30.9c32.4 17.7 68.9 27 106.1 27h.1c122.3 0 224.1-99.6 224.1-222 0-59.3-25.2-115-67.1-157zm-157 341.6c-33.2 0-65.7-8.9-94-25.7l-6.7-4-69.8 18.3L72 359.2l-4.4-7c-18.5-29.4-28.2-63.3-28.2-98.2 0-101.7 82.8-184.5 184.6-184.5 49.3 0 95.6 19.2 130.4 54.1 34.8 34.9 56.2 81.2 56.1 130.5 0 101.8-84.9 184.6-186.6 184.6zm101.2-138.2c-5.5-2.8-32.8-16.2-37.9-18-5.1-1.9-8.8-2.8-12.5 2.8-3.7 5.6-14.3 18-17.6 21.8-3.2 3.7-6.5 4.2-12 1.4-32.6-16.3-54-29.1-75.5-66-5.7-9.8 5.7-9.1 16.3-30.3 1.8-3.7.9-6.9-.5-9.7-1.4-2.8-12.5-30.1-17.1-41.2-4.5-10.8-9.1-9.3-12.5-9.5-3.2-.2-6.9-.2-10.6-.2-3.7 0-9.7 1.4-14.8 6.9-5.1 5.6-19.4 19-19.4 46.3 0 27.3 19.9 53.7 22.6 57.4 2.8 3.7 39.1 59.7 94.8 83.8 35.2 15.2 49 16.5 66.6 13.9 10.7-1.6 32.8-13.4 37.4-26.4 4.6-13 4.6-24.1 3.2-26.4-1.3-2.5-5-3.9-10.5-6.6z"/></symbol></svg>